<svg xmlns="http://www.w3.org/2000/svg" viewBox="0 0 320 320" width="100%" height="100%">
  <path d="
    M 160,15 
    L 138,48 L 116,48 Q 105,48 100,43 L 96,50 Q 110,60 127,60 
    L 193,60 Q 210,60 224,50 L 220,43 Q 215,48 204,48 
    L 182,48 Z
    " 
    fill="#1A2238" />
  
  <path d="
    M 132,60 L 132,95 L 188,95 L 188,60 Z
    M 147,60 L 173,60 L 173,95 L 147,95 Z
    " 
    fill="#1A2238" />

  <path d="
    M 160,83
    L 120,112 L 85,112 Q 62,112 50,100 L 45,114 Q 74,129 103,129
    L 217,129 Q 246,129 275,114 L 270,100 Q 258,112 235,112
    L 200,112 Z
    " 
    fill="#1A2238" />

  <path d="
    M 114,129 L 114,192 L 206,192 L 206,129 Z
    M 131,129 L 189,129 L 189,192 L 131,192 Z
    " 
    fill="#1A2238" />

  <line x1="97" y1="192" x2="223" y2="192" stroke="#1A2238" stroke-width="6" stroke-linecap="round" />

  <path d="
    M 80,210 
    Q 55,210 55,228 
    Q 55,246 85,246 
    L 235,246 
    Q 265,246 265,228 
    Q 265,210 240,210
    Q 223,192 200,204
    Q 160,186 120,204
    Q 97,192 80,210 Z
    " 
    fill="#1A2238" />
</svg>
