<svg xmlns="http://www.w3.org/2000/svg" viewBox="0 0 400 450" width="100%" height="100%">
  <g transform="translate(0, 10)">
    <path d="M 200,80 L 180,110 L 160,110 Q 150,110 145,105 L 142,112 Q 155,120 170,120 L 230,120 Q 245,120 258,112 L 255,105 Q 250,110 240,110 L 220,110 Z" fill="#1A2238" />
    <path d="M 175,120 L 175,150 L 225,150 L 225,120 Z M 188,120 L 212,120 L 212,150 L 188,150 Z" fill="#1A2238" />
    <path d="M 200,140 L 165,165 L 135,165 Q 115,165 105,155 L 100,167 Q 125,180 150,180 L 250,180 Q 275,180 300,167 L 295,155 Q 285,165 265,165 L 235,165 Z" fill="#1A2238" />
    <path d="M 160,180 L 160,235 L 240,235 L 240,180 Z M 175,180 L 225,180 L 225,235 L 175,235 Z" fill="#1A2238" />
    <line x1="145" y1="235" x2="255" y2="235" stroke="#1A2238" stroke-width="5" stroke-linecap="round" />
    <path d="M 130,250 Q 110,250 110,265 Q 110,280 135,280 L 265,280 Q 290,280 290,265 Q 290,250 270,250 Q 255,235 235,245 Q 200,230 165,245 Q 145,235 130,250 Z" fill="#1A2238" />
  </g>

  <g fill="#1A2238" text-anchor="middle">
    <text x="200" y="345" font-family="'Noto Serif CJK SC', 'Source Han Serif', 'SimSun', serif" font-size="28" font-weight="bold" letter-spacing="12">凌霄阁</text>
    <text x="200" y="385" font-family="'Helvetica Neue', 'Arial', sans-serif" font-size="20" font-weight="600" letter-spacing="6">ideaprd</text>
  </g>
</svg>
